<svg width="256" height="256" viewBox="0 0 256 256" fill="none" xmlns="http://www.w3.org/2000/svg">
<path d="M0 128V256H128H256V128V0H128H0V128Z" fill="#007ACC"/>
<path d="M56.6112 128.85L56.5299 139.333H73.1902H89.8505L89.8505 186.673V234.013H101.635H113.419V186.673L113.419 139.333H130.079H146.739V129.053C146.739 123.364 146.618 118.61 146.455 118.488C146.333 118.325 126.056 118.244 101.472 118.284L56.7331 118.406L56.6112 128.85Z" fill="white"/>
<path d="M206.567 118.109C213.068 119.734 218.026 122.619 222.577 127.333C224.934 129.852 228.428 134.444 228.713 135.541C228.794 135.866 217.66 143.343 210.915 147.528C210.671 147.691 209.696 146.634 208.598 145.009C205.307 140.214 201.853 138.142 196.57 137.776C188.809 137.248 183.811 141.311 183.852 148.097C183.852 150.088 184.136 151.267 184.949 152.892C186.656 156.427 189.825 158.54 199.781 162.848C218.107 170.731 225.949 175.932 230.826 183.328C236.271 191.577 237.49 204.742 233.792 214.535C229.729 225.182 219.651 232.415 205.469 234.812C201.081 235.584 190.678 235.462 185.965 234.609C175.684 232.78 165.932 227.701 159.918 221.037C157.561 218.436 152.969 211.65 153.254 211.163C153.376 211 154.432 210.35 155.61 209.659C156.748 209.009 161.056 206.53 165.119 204.173L172.474 199.907L174.018 202.182C176.172 205.474 180.885 209.984 183.73 211.488C191.897 215.795 203.113 215.185 208.639 210.228C210.996 208.074 211.971 205.839 211.971 202.548C211.971 199.582 211.605 198.281 210.061 196.046C208.07 193.202 204.007 190.805 192.466 185.806C179.26 180.118 173.571 176.582 168.37 170.975C165.363 167.724 162.518 162.523 161.34 158.175C160.365 154.558 160.121 145.497 160.893 141.839C163.616 129.08 173.246 120.181 187.143 117.54C191.654 116.686 202.137 117.012 206.567 118.109Z" fill="white"/>
</svg>
